<?xml version="1.0" encoding="UTF-8"?>
<svg id="Layer_1" data-name="Layer 1" xmlns="http://www.w3.org/2000/svg" viewBox="0 0 353.16 634.19">
  <defs>
    <style>
      .cls-1 {
        fill: #9e20bc;
      }

      .cls-2 {
        fill: #5bbde8;
      }

      .cls-3 {
        fill: #e8b031;
      }

      .cls-4 {
        fill: #917df4;
      }
    </style>
  </defs>
  <path class="cls-3" d="m221.5,250.36c-15.18,0-28,28.38-28,61.97s12.82,61.98,28,61.98,28-28.38,28-61.98-12.82-61.97-28-61.97Z"/>
  <path class="cls-1" d="m221.5,125c-15.18,0-28,26.25-28,57.33s12.82,57.34,28,57.34,28-26.26,28-57.34-12.82-57.33-28-57.33Z"/>
  <path class="cls-1" d="m221.5,114.67c15.18,0,28-26.26,28-57.34S236.68,0,221.5,0s-28,26.25-28,57.33,12.82,57.34,28,57.34Z"/>
  <path class="cls-1" d="m221.5,380.31c-15.18,0-28,28.38-28,61.97s12.82,61.97,28,61.97,28-28.38,28-61.97-12.82-61.97-28-61.97Z"/>
  <path class="cls-1" d="m221.5,510.25c-15.18,0-28,28.38-28,61.97s12.82,61.97,28,61.97,28-28.38,28-61.97-12.82-61.97-28-61.97Z"/>
  <path class="cls-1" d="m243.64,107.1c-2.01,1.3-3.55,2.88-4.58,4.71-.15.26-.28.53-.41.8-.11.25-.23.52-.33.8-1,2.63-1.07,5.62-.24,8.93.52,2.06,1.37,4.21,2.55,6.42.24.46.5.92.77,1.39,1.9,3.25,4.47,6.61,7.64,9.96l.74.78c8.43,8.69,20.36,16.82,33.74,22.99,30.72,14.17,62.09,14.62,68.5.97,1.59-3.4,1.54-7.49-.17-12.16-4.94-13.52-22.48-28.88-44.69-39.12-25.33-11.69-51.44-14.35-63.5-6.47h0Z"/>
  <path class="cls-1" d="m352.01,463.6c-.13-.27-.26-.54-.41-.8-1.03-1.82-2.57-3.4-4.58-4.71h0c-12.06-7.88-38.18-5.22-63.5,6.47-22.21,10.25-39.75,25.6-44.69,39.12-1.71,4.67-1.76,8.76-.17,12.16,6.41,13.65,37.77,13.2,68.5-.97,13.37-6.17,25.31-14.31,33.74-22.99l.74-.78c3.17-3.35,5.74-6.71,7.64-9.96.27-.46.53-.93.77-1.39,1.17-2.21,2.03-4.36,2.55-6.42.83-3.31.76-6.3-.24-8.93-.1-.28-.22-.56-.33-.8Z"/>
  <path class="cls-2" d="m21.83,271.45c12.47,8.65,37.97-5.63,55.68-31.17,17.71-25.54,22.13-54.42,9.65-63.07-12.47-8.65-37.97,5.62-55.68,31.16-17.71,25.54-22.13,54.43-9.66,63.08Z"/>
  <path class="cls-4" d="m160.05,169.83c27.19-15.04,43.96-38.97,36.62-52.25-7.35-13.28-36.53-11.8-63.72,3.24-27.2,15.04-43.97,38.97-36.63,52.25,7.35,13.28,36.53,11.79,63.73-3.25Z"/>
  <path class="cls-4" d="m202.03,514.08h0c1.48-3.45,1.28-7.53-.58-12.14-5.39-13.35-23.45-28.11-46-37.61-15.04-6.33-30.11-9.47-42.36-9.47-13.16,0-23.05,3.62-26.12,10.8-1.48,3.45-1.28,7.54.58,12.15,5.39,13.35,23.45,28.11,46,37.61,31.19,13.13,62.55,12.52,68.48-1.33Z"/>
  <path class="cls-2" d="m70.83,389.79c-8.94-13.64-19.7-24.66-29.87-31.5-10.92-7.34-21.15-9.86-27.7-5.62-3.15,2.04-5.27,5.54-6.29,10.41-2.97,14.09,3.77,36.42,17.19,56.88,18.55,28.31,44.92,45.3,57.57,37.11h0c3.15-2.04,5.26-5.54,6.29-10.4,2.97-14.09-3.77-36.41-17.19-56.88Z"/>
  <ellipse class="cls-3" cx="24" cy="312" rx="24" ry="31"/>
</svg>